<?xml version="1.0" standalone="no"?>
<!DOCTYPE svg PUBLIC "-//W3C//DTD SVG 1.0//EN" "http://www.w3.org/TR/2001/REC-SVG-20010904/DTD/svg10.dtd">
<svg xmlns="http://www.w3.org/2000/svg" xmlns:xlink="http://www.w3.org/1999/xlink" id="body_1" width="882" height="588">

<g transform="matrix(1.0004184 0 0 1.0005702 0 0)">
    <path d="M150.925 561.321L164.207 564.918L184.406 515.395L164.801 510.085L150.925 561.321L150.925 561.321" stroke="none" fill="#FFB6B6" fill-rule="nonzero" />
    <path transform="matrix(1 0 0 1 -156.3731 -156.0101)"  d="M303.0762 731.0612L343.92377 742.1248L344.06372 741.6082C 346.44162 732.8277 341.25195 723.7818 332.4717 721.4028L332.4717 721.4028L332.4707 721.4025L326.54285 713.7208L311.08817 715.6111L307.52243 714.64526L303.0762 731.0612z" stroke="none" fill="#2F2E41" fill-rule="nonzero" />
    <path d="M242.64 572.847L256.401 572.846L262.948 519.764L242.637 519.765L242.64 572.847L242.64 572.847" stroke="none" fill="#FFB6B6" fill-rule="nonzero" />
    <path transform="matrix(1 0 0 1 -156.3731 -156.0101)"  d="M398.52792 743.21265L440.84726 743.21106L440.84726 742.67584C 440.84665 733.579 433.47226 726.2047 424.3754 726.2042L424.3754 726.2042L424.3744 726.2042L416.64423 720.3397L402.22144 726.20514L398.52722 726.20526L398.52792 743.21265z" stroke="none" fill="#2F2E41" fill-rule="nonzero" />
    <path transform="matrix(1 0 0 1 -156.3731 -156.0101)"  d="M404.88858 422.7734L423.3567 684.351L393.61557 686.9863L352.12384 493.12634L356.72153 605.29236L340.25385 693.51196L315.07993 681.3392L315.49808 589.4805L282.4474 441.0381L291.24417 422.77338L404.88858 422.7734z" stroke="none" fill="#2F2E41" fill-rule="nonzero" />
    <path transform="matrix(1 0 0 1 -156.3731 -156.0101)"  d="M286.6649 455.31924L286.48035 455.06036C 276.6239 441.26114 291.448 408.1019 293.68384 403.295C 288.2091 401.5184 284.75104 396.12274 285.4235 390.40637L285.4235 390.40637L286.3873 382.21338L287.39197 374.17715L280.19455 366.97974L280.17432 366.80023L276.03232 330.55777L270.01 306.4859C 265.38986 287.9576 271.12424 268.378 285.01 255.26965L285.01 255.26965L298.9306 253.05922L315.84845 236.75867L343.13046 236.75867L352.48483 245.69603C 369.94736 248.75867 372.94736 247.75867 387.94736 265.75867L387.94736 265.75867L381.13144 321.72113L379.4311 329.41986L379.43616 339.86185L383.759 344.666C 386.91635 348.17493 388.23102 352.9689 387.30524 357.59753L387.30524 357.59753L386.73676 360.43982C 391.1951 362.35046 395.44934 396.30533 396.46576 401.04813L396.46576 401.04813L397.98404 408.13278C 399.28296 409.84677 407.85666 421.27878 407.85666 424.40396C 407.85666 424.87317 407.5103 425.32672 406.76706 425.82986C 400.9242 429.7863 377.62955 457.85236 363.33633 452.13287C 348.11127 446.0453 287.58917 455.17767 286.97943 455.27072L286.97943 455.27072L286.6649 455.31924z" stroke="none" fill="#3F3D56" fill-rule="nonzero" />
    <path transform="matrix(1 0 0 1 -156.3731 -156.0101)"  d="M282.9995 390.24408C 282.9995 390.24408 290.00552 350.6495 282.9474 335.7587L282.9474 335.7587L254.94739 337.7587L259.2086 394.24524L283.68576 456.9627C 282.65253 462.3069 285.62744 467.6164 290.7248 469.52554C 295.82214 471.43472 301.55307 469.38593 304.28476 464.6779C 307.01648 459.96982 305.95108 453.97766 301.76392 450.4998L301.76392 450.4998L282.9995 390.24408z" stroke="none" fill="#FFB6B6" fill-rule="nonzero" />
    <path transform="matrix(1 0 0 1 -156.3731 -156.0101)"  d="M254.94739 314.7587L256.6803 295.88748C 257.9976 281.5424 264.98093 268.31485 276.08307 259.13562C 283.05014 253.41788 292.65845 252.14954 300.87054 255.86356C 312.15942 261.06082 317.49353 274.114 313.07526 285.72992C 306.60373 302.70236 308.94058 320.65118 296.32178 322.83942L296.32178 322.83942L297.69272 329.36185L285.28537 369.85223L249.94737 365.7587L254.94739 314.7587z" stroke="none" fill="#3F3D56" fill-rule="nonzero" />
    <path transform="matrix(1 0 0 1 -156.3731 -156.0101)"  d="M393.72693 443.94424C 390.30243 448.17517 390.43185 454.25995 394.03314 458.34146C 397.63443 462.42294 403.65573 463.30905 408.28015 460.43805C 412.9046 457.56708 414.78143 451.77756 412.721 446.73944L412.721 446.73944L424.4341 380.44144L417.5441 324.215L389.695 327.74036C 385.69162 343.72552 400.32034 381.1797 400.32034 381.1797L400.32034 381.1797L393.72693 443.94424z" stroke="none" fill="#FFB6B6" fill-rule="nonzero" />
    <path transform="matrix(1 0 0 1 -156.3731 -156.0101)"  d="M427.93384 350.6924L394.0831 361.6311L381.0501 341.2993L381.11642 334.63467C 368.31342 334.96155 360.01993 299.9604 350.34808 284.58508C 343.73932 274.06012 346.41223 260.21478 356.46384 252.90619C 363.78894 247.65503 373.4595 247.01602 381.41193 251.2577C 394.09747 258.08356 403.5374 269.68628 407.6401 283.4951L407.6401 283.4951L413.03726 301.6609L427.93384 350.6924z" stroke="none" fill="#3F3D56" fill-rule="nonzero" />
    <path d="M201.5743 42.57533C 201.57431 50.942074 198.61621 58.083538 192.70003 63.999718C 186.78384 69.91591 179.64238 72.87399 171.27563 72.87399C 162.9089 72.87399 155.76743 69.91591 149.85124 63.999718C 143.93506 58.083538 140.97697 50.942074 140.97697 42.57533C 140.97697 34.208584 143.93506 27.067122 149.85124 21.150942C 155.76743 15.23476 162.9089 12.2766695 171.27563 12.276669C 179.64238 12.2766695 186.78384 15.23476 192.70003 21.150942C 198.61621 27.067122 201.57431 34.208584 201.5743 42.57533C 201.57431 42.927906 201.56815 43.280376 201.55583 43.632736" stroke="none" fill="#FFB6B6" fill-rule="nonzero" />
    <path transform="matrix(1 0 0 1 -156.3731 -156.0101)"  d="M305.66025 219.94144C 305.39578 219.70949 305.14615 219.46182 304.88766 219.22343C 304.8784 219.24788 304.87698 219.27295 304.8671 219.29732L304.8671 219.29732L305.66025 219.94144z" stroke="none" fill="#2F2E41" fill-rule="nonzero" />
    <path transform="matrix(1 0 0 1 -156.3731 -156.0101)"  d="M352.47836 166.59C 350.97296 164.16663 348.88782 162.15623 346.41113 160.74026C 344.71835 159.91922 342.93948 159.28894 341.1074 158.86107L341.1074 158.86107L336.31238 157.5528C 333.85556 156.79257 331.3279 156.28363 328.7683 156.0338C 321.52264 155.67638 314.68195 159.38754 311.0312 165.65643C 309.58252 168.22598 308.42047 171.42798 305.62448 172.36807C 303.37 173.12613 300.91022 172.05685 298.54077 172.2643C 295.721 172.67291 293.29147 174.46251 292.06506 177.0343C 290.8842 179.5826 290.303 182.36763 290.36615 185.17554C 290.17786 198.067 295.45337 210.43616 304.88773 219.22354C 305.66974 217.16225 304.3817 214.93677 303.36353 212.96494C 302.33328 210.96973 301.6966 208.18811 303.42212 206.75111C 305.34213 205.15211 308.41827 206.70268 310.68893 205.65994C 312.16446 204.8124 313.11682 203.28154 313.22504 201.58334C 313.44482 199.92662 313.21536 198.24257 313.31934 196.57457C 313.52628 193.2546 315.0436 190.15282 317.5375 187.95157C 320.0314 185.75034 323.2976 184.62994 326.61755 184.8369C 326.65536 184.83925 326.69318 184.84178 326.731 184.84448C 331.89944 185.21367 336.9153 188.74542 341.8891 187.29248C 344.22382 186.61047 346.2151 184.87401 348.62976 184.58192C 351.30396 184.2584 353.81964 185.76762 356.09033 187.21677C 357.75766 180.13654 356.45236 172.68237 352.47836 166.59z" stroke="none" fill="#2F2E41" fill-rule="nonzero" />
    <path transform="matrix(1 0 0 1 -156.3731 -156.0101)"  d="M510.80524 726.19L503.09525 713.8L501.55524 720.88007C 501.28525 722.12006 501.01523 723.38007 500.76523 724.63007C 498.57523 722.75995 496.24524 721.02997 493.96542 719.37006C 486.96545 714.29 479.9687 709.2033 472.9752 704.11005L472.9752 704.11005L475.16513 716.81006C 476.51523 724.6301 477.92538 732.61005 481.26523 739.7601C 481.63535 740.5701 482.03522 741.3702 482.46542 742.1502L482.46542 742.1502L515.00543 742.1502C 515.26715 741.4256 515.44824 740.6743 515.5454 739.9101C 515.5535 739.86053 515.5568 739.8103 515.5552 739.7601C 516.0655 734.91 513.3853 730.34 510.80524 726.19z" stroke="none" fill="#F0F0F0" fill-rule="nonzero" />
    <path transform="matrix(1 0 0 1 -156.3731 -156.0101)"  d="M548.66614 743.3677L233.30862 743.675C 232.65346 743.6716 232.12415 743.13947 232.12415 742.4843C 232.12415 741.82916 232.65346 741.29706 233.30862 741.29364L233.30862 741.29364L548.66614 740.9863C 549.3213 740.98975 549.8506 741.52185 549.8506 742.177C 549.8506 742.83215 549.3213 743.36426 548.66614 743.3677z" stroke="none" fill="#CACACA" fill-rule="nonzero" />
    <path transform="matrix(1 0 0 1 -156.3731 -156.0101)"  d="M874.6366 349.40573C 874.494 421.9609 819.0212 482.42212 746.7464 488.79626C 674.4716 495.17038 609.27277 445.35156 596.43353 373.94128C 583.5943 302.53104 627.3564 233.12152 697.3251 213.92091C 767.2937 194.72032 840.3529 232.07207 865.7597 300.03357C 866.0654 300.85693 866.3635 301.6802 866.6536 302.51157L866.6536 302.51157L866.6536 302.51944C 867.94763 306.1737 869.08734 309.89597 870.0727 313.68622C 873.1126 325.3491 874.6464 337.35318 874.6366 349.40573z" stroke="none" fill="#3F3D56" fill-rule="nonzero" />
    <path transform="matrix(1 0 0 1 -156.3731 -156.0101)"  d="M718.0405 254.1716C 705.18616 247.22037 689.8426 246.59262 676.4634 252.4706C 670.65015 255.00052 664.529 259.5389 662.5898 267.73444C 670.43304 263.10562 680.58594 270.41913 682.60425 282.15143L682.60425 282.15143L682.1332 282.28137C 681.0672 290.40765 683.4469 299.25507 688.054 304.29395C 688.7477 299.68958 691.47687 295.6419 695.48535 293.27255C 698.87036 291.0474 702.61505 289.43094 705.1987 285.60614C 708.26166 281.07172 709.0394 274.4448 710.2562 268.39935C 711.473 262.3539 713.7811 255.85614 718.0405 254.1716z" stroke="none" fill="#6C63FF" fill-rule="nonzero" />
    <path transform="matrix(1 0 0 1 -156.3731 -156.0101)"  d="M674.1367 323.32376C 671.96454 326.58597 669.0631 328.63275 666.45966 331.18134C 663.4541 333.91522 661.4823 337.60126 660.8763 341.61877C 660.5469 344.45752 661.0566 347.3432 660.98596 350.21344C 660.9155 353.08344 659.9587 356.3143 658.00616 357.0279C 654.92426 358.14133 652.5717 352.4169 649.40375 352.01697C 646.8864 351.7033 644.62024 355.66345 645.3495 359.09818C 646.07874 362.5329 649.5057 364.05417 651.47394 361.81143C 653.254 364.7991 651.99927 370.21793 649.32526 371.13535C 649.04285 373.01733 648.7607 374.8916 648.48615 376.77362C 641.72644 372.04498 634.8963 367.23804 629.14825 360.31363C 622.75543 352.67786 618.7904 343.30585 617.76196 333.40054C 617.01697 325.44107 618.1227 316.3367 614.4685 310.21234C 611.5434 305.3112 606.5246 304.22894 602.0077 304.53482C 601.1843 304.58963 600.35315 304.68375 599.52966 304.78574C 602.1934 296.78513 605.57654 289.04242 609.63763 281.6523C 610.5567 281.25778 611.4107 280.7263 612.17053 280.076C 616.37384 276.50803 618.2402 269.28564 621.6513 264.29037C 621.871 263.96884 622.0984 263.65518 622.3335 263.34937C 625.8232 258.79318 630.4969 256.4485 635.01373 254.26846C 645.0121 249.41441 655.3004 244.4976 665.8556 245.17197L665.8556 245.17197L662.8522 245.46213C 659.3469 255.28012 655.839 265.0981 652.32837 274.91608C 650.3365 280.4994 648.2819 286.44354 648.5878 292.6935C 648.76825 296.3948 650.0542 300.34717 652.50085 301.61752C 654.78284 302.79382 657.2765 301.35086 659.48 299.92368C 660.4132 299.32767 661.33856 298.7317 662.2717 298.12784C 665.6202 295.9713 669.32935 293.75998 672.866 295.20285C 676.10474 296.5203 678.49646 300.91962 678.95123 305.66385C 680.1444 311.9775 678.36914 318.48926 674.1367 323.32376z" stroke="none" fill="#6C63FF" fill-rule="nonzero" />
    <path transform="matrix(1 0 0 1 -156.3731 -156.0101)"  d="M694.0517 390.35345C 684.27216 384.3321 674.4926 378.31073 664.7131 372.2894L664.7131 372.2894L664.87897 371.8618C 658.7985 374.17773 656.27405 384.98608 657.279 393.82498C 658.28394 402.66388 661.69116 410.56537 663.4125 419.17776C 665.73346 430.96362 664.8575 443.1559 660.87537 454.48886C 673.73486 440.05975 685.1155 424.3777 694.8464 407.67816C 696.20575 405.57346 697.2416 403.27664 697.91925 400.8645C 698.6371 398.29385 698.3812 395.54877 697.20074 393.15506C 696.40027 391.97397 695.31793 391.01108 694.0517 390.35345z" stroke="none" fill="#6C63FF" fill-rule="nonzero" />
    <path transform="matrix(1 0 0 1 -156.3731 -156.0101)"  d="M655.45526 280.8069C 654.30695 283.27264 654.13 286.08057 654.95966 288.67096C 655.9247 290.75797 657.6751 292.37918 659.82983 293.1816L659.82983 293.1816L665.23346 295.86005C 667.0311 296.75116 668.9688 297.6511 670.8014 296.91797C 673.0117 296.03375 674.54425 292.56848 674.1479 289.35147C 673.7259 285.92813 671.5681 283.5734 669.57245 281.56815C 666.77966 278.76196 663.9868 275.95578 661.19403 273.14957L661.19403 273.14957L659.62006 275.07733C 657.9177 276.73785 656.50946 278.6752 655.45526 280.8069z" stroke="none" fill="#6C63FF" fill-rule="nonzero" />
    <path transform="matrix(1 0 0 1 -156.3731 -156.0101)"  d="M845.6689 317.4032C 848.1 317.97565 850.531 318.5481 852.9619 319.12048C 852.5384 327.33096 848.46857 334.92972 843.0107 337.68213C 840.7365 338.82712 838.2037 339.2505 836.32153 341.39136C 834.6199 343.33612 833.7572 346.36295 832.9652 349.2566C 831.57733 354.30676 830.18933 359.3569 828.80115 364.40695C 827.3113 369.8492 825.3979 375.89536 821.524 377.85577C 818.19904 379.54166 814.39575 377.47928 811.8394 374.02103C 809.28296 370.5629 807.7225 365.91263 806.2089 361.38013C 806.30304 366.32043 804.0055 371.16672 800.75104 372.884C 797.48883 374.6013 793.5208 373.04865 791.3409 369.21408C 789.7725 366.46158 789.1217 362.83075 787.5846 360.0391C 786.0476 357.24744 782.82465 355.64774 781.1465 358.26685C 780.0407 360.00784 780.1819 362.67395 779.63293 364.88538C 779.06647 367.8948 776.6553 370.21475 773.6262 370.6648C 770.8801 370.60187 768.28033 369.41394 766.43524 367.379C 761.6331 362.46683 758.5069 356.1622 757.5034 349.36636C 756.8231 346.10812 756.90906 342.7364 757.7544 339.51703C 758.71893 336.46667 761.04785 334.1142 763.3612 334.69434C 764.8825 331.47906 761.8792 327.2132 759.1737 327.58963C 756.4603 327.96606 754.33527 330.87534 752.1082 333.11026C 749.88904 335.34518 746.7837 336.9684 744.5487 334.7491C 744.6528 336.43945 743.3669 337.8941 741.6765 337.9982C 741.59625 338.00317 741.51587 338.00494 741.4355 338.00354C 739.9494 337.57697 738.56866 336.84515 737.3813 335.85486C 732.26056 332.66318 725.7596 334.78058 722.1211 340.81866C 724.39526 331.14185 727.72797 320.0378 734.71497 317.76367C 737.5695 316.83054 740.68274 317.59903 743.38025 315.98355C 748.156 313.12137 749.1205 302.30743 744.9957 297.84555C 745.52106 302.0644 745.41925 306.98907 743.1921 309.87494C 740.965 312.7608 736.29126 310.8786 736.57367 306.61273C 736.44354 307.84354 735.53595 308.85077 734.3253 309.10788C 733.1146 309.36502 731.87604 308.8136 731.25696 307.7419C 729.77484 305.48355 729.9004 301.79004 730.9512 299.09244C 732.0345 296.64917 733.5879 294.44293 735.52295 292.59943C 739.2478 288.60797 743.0276 284.56943 747.34064 282.06C 751.6615 279.55066 756.6489 278.70377 760.97754 281.19748C 763.25964 282.51483 765.2671 284.7106 767.59607 285.87115C 768.7014 286.557 770.0339 286.77567 771.3004 286.47906C 772.56696 286.18243 773.6638 285.39484 774.3496 284.28952C 774.37585 284.24728 774.4014 284.20465 774.4264 284.16156C 776.15936 281.1189 775.3438 276.60202 775.9869 272.7988C 777.1396 266.0784 783.86 262.9338 787.5849 267.37222C 784.80115 266.65866 781.9231 269.9522 781.57806 273.9438C 781.2252 277.93524 783.24066 281.96594 785.9382 283.1736C 790.47076 285.18103 794.9092 280.13086 798.3361 275.4572C 801.9119 270.5639 805.493 265.67322 809.07935 260.78522C 809.652 259.9529 810.2947 259.1711 811.0005 258.44833C 813.3313 256.17642 817.02454 256.101 819.44617 258.27585C 823.06903 261.23215 824.77075 267.29395 827.7429 271.46576C 832.0559 277.52747 838.50977 279.00177 844.5165 280.178C 848.99414 281.0485 853.4745 281.92416 857.95746 282.80502C 860.9457 288.3644 863.5526 294.1206 865.76 300.0336C 857.53925 303.78217 850.56635 309.8105 845.6689 317.4032z" stroke="none" fill="#6C63FF" fill-rule="nonzero" />
    <path transform="matrix(1 0 0 1 -156.3731 -156.0101)"  d="M870.0727 313.6862C 869.154 316.39423 868.6516 319.22598 868.5827 322.08475C 864.7402 317.39536 864.1285 308.60474 866.65356 302.51944C 867.94763 306.1737 869.08734 309.89597 870.0727 313.6862z" stroke="none" fill="#6C63FF" fill-rule="nonzero" />
    <path transform="matrix(1 0 0 1 -156.3731 -156.0101)"  d="M860.145 411.75613C 856.7853 418.57797 852.87775 425.11588 848.4607 431.30573C 845.6377 430.09805 842.6029 432.25452 839.96014 434.2777C 837.19977 436.395 833.8827 438.4574 831.0518 436.5283C 828.15826 434.55215 827.22504 429.02374 828.1425 424.64005C 829.197 420.59628 831.04126 416.80112 833.56903 413.47327C 835.92163 409.96014 838.4387 406.31366 841.70886 404.94922C 844.9868 403.58478 849.19775 405.5138 850.15454 410.1719L850.15454 410.1719L852.4757 410.0934C 851.17395 408.3055 851.85626 404.60416 853.605 403.9533C 855.6203 403.1927 857.3691 405.96075 858.561 408.40753C 859.0942 409.51324 859.6352 410.62686 860.145 411.75613z" stroke="none" fill="#6C63FF" fill-rule="nonzero" />
    <path transform="matrix(1 0 0 1 -156.3731 -156.0101)"  d="M771.2455 378.63284C 766.2562 378.9466 762.30426 372.8046 759.67816 366.76224C 757.05206 360.71988 754.6558 353.81003 750.15405 350.73444C 747.5818 348.97702 744.6492 348.73596 741.85913 347.88428C 738.6485 347.0734 736.0258 344.7643 734.8148 341.68228L734.8148 341.68228L731.6499 340.4038C 727.2229 342.61673 723.16864 345.50754 719.6337 348.9717C 715.5943 353.26257 713.0783 358.76294 712.4737 364.62497C 711.86914 370.95984 714.1016 378.0236 718.2731 380.4033C 721.56915 382.2837 725.40674 381.09845 728.7454 382.8199C 732.9169 384.97052 735.39343 391.21823 736.33093 397.38702C 737.26843 403.55582 737.03076 409.96652 737.70154 416.2053C 738.3723 422.44406 740.22076 428.9357 744.04626 432.1328C 748.8334 436.13367 755.8579 432.80914 758.0057 425.5262C 759.0592 421.9539 759.0229 417.92282 759.8109 414.2146C 761.1985 407.68414 764.943 402.83905 767.9129 397.48215C 770.8828 392.12524 773.22076 384.84973 771.2455 378.63284z" stroke="none" fill="#6C63FF" fill-rule="nonzero" />
    <path transform="matrix(1 0 0 1 -156.3731 -156.0101)"  d="M721.9445 314.462C 722.4098 314.89032 722.844 315.35126 723.2438 315.84128C 724.087 317.29517 724.0563 319.09637 723.164 320.52063C 724.379 320.45145 725.5096 319.87683 726.2816 318.9361C 727.1922 317.899 727.9932 316.7706 728.672 315.5689C 729.3176 314.73636 729.57434 313.66653 729.37683 312.63168C 729.1411 311.95905 728.58374 311.67212 728.19305 311.16623C 727.65137 310.17715 727.2817 309.10327 727.0997 307.9904C 726.6578 305.86288 725.0501 304.16858 722.94867 303.61575L722.94867 303.61575L723.19867 303.66357C 722.32605 304.18137 721.8795 305.19687 722.08777 306.1899C 722.2392 307.16846 722.868 307.9809 722.8054 308.9789C 722.7154 310.41406 721.2812 311.08752 721.19257 312.52286C 721.1786 313.24295 721.4487 313.9396 721.9445 314.462z" stroke="none" fill="#6C63FF" fill-rule="nonzero" />
    <path transform="matrix(1 0 0 1 -156.3731 -156.0101)"  d="M713.3963 290.07373L713.4185 290.0694C 713.57196 289.92947 713.7143 289.77786 713.84424 289.61594L713.84424 289.61594L713.3963 290.07373z" stroke="none" fill="#6C63FF" fill-rule="nonzero" />
    <path transform="matrix(1 0 0 1 -156.3731 -156.0101)"  d="M714.8926 296.81015C 716.1142 295.73822 716.63654 294.07483 716.247 292.497C 715.8846 290.8652 714.6018 289.768 713.4186 290.0694C 712.72076 290.77686 711.7078 291.07507 710.73804 290.85858C 710.00653 290.67023 709.2034 290.1852 708.5689 290.73642C 708.20593 291.14804 707.95197 291.64404 707.8301 292.17908C 707.5953 292.90002 707.3604 293.62085 707.1255 294.34158C 707.014 294.59967 706.9849 294.88586 707.04224 295.16107C 707.1338 295.38538 707.3356 295.54578 707.57465 295.58432C 708.98364 295.9997 710.39264 296.41507 711.8016 296.8304C 712.7838 297.28296 713.9163 297.27554 714.8926 296.81015z" stroke="none" fill="#6C63FF" fill-rule="nonzero" />
    <path transform="matrix(1 0 0 1 -156.3731 -156.0101)"  d="M821.26044 389.81348C 820.6092 388.74716 819.9579 387.68082 819.3065 386.61447C 818.6668 385.37958 817.79224 384.2814 816.7318 383.38156C 816.268 382.993 815.6688 382.80463 815.0661 382.85785C 814.4634 382.91107 813.90643 383.20157 813.5179 383.6654L813.5179 383.6654L813.4839 383.7069L813.5632 384.31598C 815.3072 386.1856 816.49554 388.50436 816.995 391.0119C 817.1435 392.10165 817.09186 393.22946 817.222 394.324C 817.24976 395.34894 817.68384 396.32077 818.42865 397.02542C 819.4542 397.71054 820.65845 396.70035 821.3883 395.46774C 822.04083 394.4553 822.33356 393.25272 822.2193 392.05365C 822.05664 391.24908 821.7303 390.48657 821.26044 389.81348z" stroke="none" fill="#6C63FF" fill-rule="nonzero" />
    <path transform="matrix(1 0 0 1 -156.3731 -156.0101)"  d="M831.4776 391.20114C 831.6018 390.20285 831.5206 389.18973 831.23914 388.22394C 831.19257 386.91724 831.53906 385.6266 832.2337 384.51886C 832.9237 383.47385 833.44653 382.3276 833.7833 381.1215C 833.92523 380.5719 833.89935 379.99243 833.709 379.45776C 833.4934 378.97348 832.97125 378.75256 832.6717 379.13605L832.6717 379.13605L833.3127 379.54892C 832.4472 379.39453 831.55804 379.4376 830.7115 379.67493C 829.73145 380.05008 828.9957 380.87943 828.74005 381.89728C 828.6342 382.6793 828.4612 383.4507 828.223 384.2031C 827.84064 384.98904 827.1005 385.25043 826.63544 385.94025C 825.9911 387.1825 826.0157 388.66568 826.7008 389.88593C 827.2849 390.86838 828.2134 391.59857 829.3059 391.93457C 830.08875 392.21548 831.11945 392.23032 831.4776 391.20114z" stroke="none" fill="#6C63FF" fill-rule="nonzero" />
    <path transform="matrix(1 0 0 1 -156.3731 -156.0101)"  d="M849.6724 396.69077C 849.9553 397.4272 850.3344 398.12296 850.7998 398.76C 851.6709 399.63745 852.85474 399.09818 853.91144 398.885C 855.8651 398.57654 857.8305 399.36484 859.0294 400.93784C 858.19763 396.7904 855.404 393.30496 851.53705 391.59033C 849.0608 390.73322 846.45135 390.32516 843.83167 390.3854L843.83167 390.3854L843.38416 390.50006C 844.52454 393.81918 848.10516 393.745 849.6724 396.69077z" stroke="none" fill="#6C63FF" fill-rule="nonzero" />
    <path transform="matrix(1 0 0 1 -156.3731 -156.0101)"  d="M772.6104 403.47974L772.61694 403.4942L772.74713 403.24347L772.6104 403.47974z" stroke="none" fill="#6C63FF" fill-rule="nonzero" />
    <path transform="matrix(1 0 0 1 -156.3731 -156.0101)"  d="M769.8501 408.82242C 769.2481 409.91528 768.7304 411.0525 768.3016 412.22415C 767.73376 414.12195 767.3578 416.07193 767.17926 418.0448C 767.0391 419.16656 766.9958 420.59927 767.6986 421.14587C 768.11615 421.42297 768.6744 421.34714 769.00275 420.96872C 769.3932 420.5556 769.71265 420.0808 769.9482 419.5635C 771.3296 417.18448 772.40204 414.63907 773.13965 411.98886C 773.9095 409.1774 773.72565 406.19006 772.61694 403.4942C 771.6948 405.27036 770.7725 407.04642 769.8501 408.82242z" stroke="none" fill="#6C63FF" fill-rule="nonzero" />
    <path transform="matrix(1 0 0 1 -156.3731 -156.0101)"  d="M743.222 266.4809C 744.1181 267.35675 745.449 267.61652 746.6087 267.1419C 747.78375 266.62817 748.8617 265.9162 749.7953 265.03705C 750.56836 264.465 751.2242 263.74954 751.72705 262.92975C 752.2865 261.94025 752.42865 260.76865 752.1222 259.67407C 751.6832 258.6184 750.73004 257.8644 749.6016 257.6802C 748.0377 257.2164 746.47375 256.75266 744.90985 256.28894L744.90985 256.28894L746.0412 255.26927C 744.8772 254.6446 743.58954 255.80392 742.862 257.23926C 742.39545 258.17648 742.07025 259.1776 741.8969 260.21008C 741.3961 262.39352 741.8807 264.6867 743.222 266.4809z" stroke="none" fill="#6C63FF" fill-rule="nonzero" />
    <path transform="matrix(1 0 0 1 -156.3731 -156.0101)"  d="M770.8327 257.21167C 771.7475 258.22012 773.288 258.34543 774.3539 257.4981C 775.2478 256.8267 775.8141 255.8068 775.9113 254.693C 776.022 253.46283 775.4137 252.09557 774.54504 251.98932L774.54504 251.98932L774.7439 250.83754C 773.0704 250.53531 771.01117 250.47478 770.1144 252.50703C 769.4987 254.09125 769.77234 255.88332 770.8327 257.21167z" stroke="none" fill="#6C63FF" fill-rule="nonzero" />
	<g>
        <path transform="matrix(1 0 0 1 -156.3731 -156.0101)"  d="M1035.5869 356.36C 1044.8223 352.3332 1026.093 349.98914 1004.8438 349.21838C 983.5946 348.44763 957.88916 348.49033 944.30975 346.29816C 931.1765 344.17798 932.14417 340.40823 931.0394 336.99268C 929.9347 333.57712 924.88574 330.07504 904.39264 329.31577C 878.8556 328.3697 836.7434 332.01147 817.4658 329.8251C 799.4762 327.78476 810.1697 321.3847 783.93756 321.13974C 768.95825 320.99985 749.6609 323.10983 732.99335 323.61908C 721.1788 324.13156 709.34235 323.51443 697.6451 321.7761C 689.5211 320.4451 683.8628 318.75766 674.7196 317.58203C 650.71515 314.49542 603.7509 315.53293 561.8336 319.48883C 519.9163 323.44473 483.9855 329.92773 463.72168 336.34875C 443.45786 342.76978 437.8594 349.09183 442.57968 354.45288C 445.5938 357.87622 453.3069 361.07727 472.01678 362.45288C 507.01248 365.02588 569.31934 360.59702 605.4814 362.938C 625.63605 364.24268 634.5775 367.47748 652.2613 369.24747C 671.2594 371.1491 699.071 371.24982 726.3959 371.2048C 783.2898 371.11087 841.6388 370.5263 901.13715 369.45435C 925.9885 369.0066 952.0279 368.42447 978.472 366.29062C 1004.9161 364.15677 1031.888 360.03973 1037.4669 356.18024" stroke="none" fill="#FFFFFF" fill-rule="nonzero" fill-opacity="0.34901962" />
	</g>
    <path transform="matrix(1 0 0 1 -156.3731 -156.0101)"  d="M875.02405 534.2135C 862.11194 534.2135 847.9598 533.7256 832.5675 532.74963C 752.95374 527.694 649.8297 510.11682 542.1915 483.25745C 434.55383 456.39807 335.26135 423.4635 262.60608 390.52307C 227.2135 374.4762 200.04993 359.28674 181.87073 345.3756C 162.62366 330.64862 154.20473 317.8116 156.8468 307.22278C 161.99475 286.59387 207.5778 282.0807 244.9108 281.92737L244.9108 281.92737L244.9235 284.92737C 193.65543 285.13782 163.40982 293.3141 159.75797 307.94937C 155.10611 326.5895 193.04459 355.6901 263.84488 387.79068C 336.34048 420.65884 435.45035 453.52994 542.9181 480.34732C 650.3854 507.16373 753.31946 524.7106 832.75793 529.7555C 910.33655 534.6832 957.5011 526.818 962.15247 508.17737C 966.0143 492.7008 940.5543 469.90198 890.463 443.97913L890.463 443.97913L891.8419 441.31506C 928.2389 460.151 970.4874 487.16663 965.0636 508.90393C 962.421 519.4928 948.9581 526.8688 925.04846 530.8268C 911.41907 533.08264 894.67834 534.2135 875.02405 534.2135z" stroke="none" fill="#6C63FF" fill-rule="nonzero" />
    <path transform="matrix(1 0 0 1 -156.3731 -156.0101)"  d="M382.3695 538.1197C 346.7704 538.12067 313.67517 536.899 284.04724 534.43414C 245.32068 531.2115 214.63269 526.0308 192.83679 519.03766C 169.76013 511.6324 157.51746 502.37067 156.44861 491.50934C 154.36562 470.35114 195.78261 450.78473 230.89392 438.09625L230.89392 438.09625L231.91345 440.91852C 183.69666 458.34235 157.95645 476.20465 159.43396 491.21637C 161.3158 510.3355 206.82605 524.9976 284.29578 531.4439C 363.62097 538.0445 468.01306 535.7056 578.24304 524.85406C 688.473 514.00543 791.3187 495.9478 867.83435 474.00836C 942.5604 452.58258 984.33923 429.32867 982.45734 410.20953C 980.89484 394.33554 949.2547 381.41653 893.36554 373.83063L893.36554 373.83063L893.76886 370.85797C 934.3787 376.3697 983.24835 387.6197 985.4427 409.9156C 986.512 420.77692 976.3094 432.2476 955.11993 444.00934C 935.1053 455.1187 906.0164 466.1822 868.66144 476.89215C 791.97644 498.88043 688.9417 516.9732 578.5369 527.8404C 509.2777 534.65686 442.29187 538.1197 382.3695 538.1197z" stroke="none" fill="#6C63FF" fill-rule="nonzero" />
    <path d="M455.33087 427.992C 455.33087 432.81982 453.624 436.9406 450.2102 440.3544C 446.79645 443.7682 442.67566 445.4751 437.8478 445.47507C 433.02002 445.4751 428.89923 443.7682 425.4854 440.3544C 422.07166 436.9406 420.36475 432.81982 420.36475 427.992C 420.36475 423.16418 422.07166 419.0434 425.4854 415.6296C 428.89923 412.21585 433.02002 410.50897 437.8478 410.50894C 442.67566 410.50897 446.79645 412.21585 450.2102 415.6296C 453.624 419.0434 455.33087 423.16418 455.33087 427.992C 455.33087 428.19547 455.32733 428.39886 455.32022 428.60214" stroke="none" fill="#6C63FF" fill-rule="nonzero" />
    <path d="M111.05729 324.7727C 111.05729 329.60052 109.3504 333.7213 105.93662 337.1351C 102.52285 340.5489 98.402054 342.25577 93.57424 342.25577C 88.74643 342.25577 84.62564 340.5489 81.21186 337.1351C 77.79808 333.7213 76.091194 329.60052 76.091194 324.7727C 76.091194 319.9449 77.79808 315.8241 81.21186 312.4103C 84.62564 308.99655 88.74643 307.28967 93.57424 307.28964C 98.402054 307.28967 102.52285 308.99655 105.93662 312.4103C 109.3504 315.8241 111.05729 319.9449 111.05729 324.7727C 111.05729 324.97617 111.05374 325.17957 111.04664 325.38284" stroke="none" fill="#E6E6E6" fill-rule="nonzero" />
    <path d="M425.2752 63.57233C 425.2752 66.5277 424.23035 69.05027 422.14056 71.14003C 420.0508 73.2298 417.52826 74.27467 414.57288 74.27467C 411.61755 74.27467 409.09497 73.2298 407.0052 71.14003C 404.91544 69.05027 403.87054 66.5277 403.87054 63.57233C 403.87054 60.616962 404.91544 58.0944 407.0052 56.004635C 409.09497 53.914875 411.61755 52.869995 414.57288 52.86999C 417.52826 52.869995 420.0508 53.914875 422.14056 56.004635C 424.23035 58.0944 425.2752 60.616962 425.2752 63.57233C 425.2752 63.696873 425.27307 63.821373 425.2687 63.945835" stroke="none" fill="#FF6584" fill-rule="nonzero" />
    <path d="M367.30276 137.58199C 367.30276 142.40979 365.5959 146.5306 362.1821 149.94437C 358.7683 153.35815 354.64752 155.06503 349.8197 155.06503C 344.99188 155.06503 340.8711 153.35815 337.4573 149.94437C 334.04355 146.5306 332.33667 142.40979 332.33664 137.58199C 332.33667 132.75418 334.04355 128.63339 337.4573 125.219604C 340.8711 121.80583 344.99188 120.098946 349.8197 120.09894C 354.64752 120.098946 358.7683 121.80583 362.1821 125.219604C 365.5959 128.63339 367.30276 132.75418 367.30276 137.58199C 367.30276 137.78543 367.29922 137.98882 367.2921 138.19214" stroke="none" fill="#E6E6E6" fill-rule="nonzero" />
</g>
</svg>