<?xml version="1.0" standalone="no"?>
<!DOCTYPE svg PUBLIC "-//W3C//DTD SVG 20010904//EN"
 "http://www.w3.org/TR/2001/REC-SVG-20010904/DTD/svg10.dtd">
<svg version="1.0" xmlns="http://www.w3.org/2000/svg"
 width="509.000000pt" height="339.000000pt" viewBox="0 0 509.000000 339.000000"
 preserveAspectRatio="xMidYMid meet">

<g transform="translate(0.000000,339.000000) scale(0.100000,-0.100000)"
fill="#000000" stroke="none">
<path d="M795 3192 l-790 -198 -3 -108 c-2 -99 -1 -107 15 -102 33 10 1108
274 1143 281 34 6 148 34 905 220 209 51 389 95 400 98 11 3 -182 5 -430 5
l-450 1 -790 -197z"/>
<path d="M3734 3358 c3 -17 6 -42 7 -57 1 -26 1 -26 10 4 5 17 7 41 4 54 -5
21 -4 23 9 12 9 -7 18 -28 22 -47 4 -22 12 -34 23 -34 9 0 24 -7 35 -15 11 -8
30 -12 47 -8 22 4 33 0 53 -23 14 -16 26 -24 26 -17 0 6 -4 15 -10 18 -22 14
-9 27 20 22 17 -4 30 -2 30 3 0 6 9 10 20 10 11 0 50 12 87 26 129 49 178 64
220 64 36 0 46 -5 77 -42 20 -23 34 -44 31 -46 -2 -3 7 -13 20 -24 14 -10 32
-35 41 -54 15 -30 21 -34 58 -35 40 -1 40 -1 11 -10 -16 -4 -43 -11 -58 -14
l-28 -6 26 -33 c14 -18 25 -40 25 -50 0 -9 6 -19 14 -22 10 -4 12 -22 9 -76
-4 -61 -8 -74 -29 -90 -31 -25 -30 -32 9 -56 25 -15 50 -20 113 -20 109 0 113
4 81 70 -56 115 -70 188 -46 242 12 25 95 76 124 76 34 0 74 -31 94 -73 29
-60 27 -173 -4 -249 -6 -16 -1 -18 38 -18 26 0 49 6 56 14 6 7 29 16 51 20
l40 6 0 164 0 164 -37 -3 c-20 -2 -39 -9 -43 -15 -4 -6 -7 6 -8 27 -2 45 -25
96 -64 142 l-27 31 -592 0 -591 -1 6 -31z"/>
<path d="M4055 3146 c-27 -13 -83 -55 -124 -94 -41 -39 -96 -86 -122 -104 -52
-35 -62 -50 -29 -41 16 4 20 0 20 -20 0 -36 14 -69 49 -118 26 -35 32 -39 37
-23 3 11 12 35 20 54 7 19 18 48 24 64 l10 29 59 -54 c32 -30 70 -62 85 -72
14 -10 26 -26 26 -36 0 -17 -5 -18 -37 -10 -60 14 -104 11 -118 -8 -10 -14
-30 -17 -99 -18 -49 0 -87 -4 -90 -10 -2 -7 24 -10 73 -10 l76 0 -2 -29 c-2
-27 -1 -28 13 -14 12 12 24 14 46 8 25 -8 30 -6 38 15 10 26 40 39 70 30 14
-4 28 2 46 20 22 22 24 28 12 42 -11 15 -11 16 5 10 11 -4 17 -2 17 8 0 7 12
23 28 36 l27 21 -25 -7 c-21 -7 -18 -1 21 42 61 65 72 88 65 131 -3 20 -1 42
6 49 8 10 7 13 -5 13 -18 0 -50 47 -42 60 3 6 15 10 26 10 10 0 19 4 19 8 0
17 -25 32 -52 32 -22 0 -26 -4 -21 -17 4 -12 0 -11 -11 5 -23 30 -76 29 -141
-2z m95 4 c0 -5 6 -10 14 -10 13 0 46 -56 46 -79 0 -6 -7 -11 -16 -11 -8 0
-13 -4 -9 -9 14 -23 -73 -45 -99 -26 -17 13 -18 18 -5 62 7 26 12 53 11 60 -2
10 6 14 51 22 4 0 7 -3 7 -9z m-171 -110 c-20 -36 -39 -52 -39 -33 0 12 45 73
53 73 5 0 -2 -18 -14 -40z m265 -56 c13 -33 5 -56 -34 -98 -47 -51 -97 -79
-120 -66 -28 16 -140 126 -140 138 0 14 46 16 55 2 3 -5 19 -10 34 -10 15 0
36 -9 46 -20 23 -25 51 -25 94 1 36 22 37 38 1 19 -38 -20 -33 -3 7 24 44 30
49 31 57 10z m-354 -128 c0 -14 -21 -26 -46 -26 -18 0 -7 28 14 33 29 8 32 7
32 -7z m0 -41 c-7 -9 -15 -13 -17 -11 -7 7 7 26 19 26 6 0 6 -6 -2 -15z"/>
<path d="M4791 3144 c-25 -18 -30 -74 -6 -74 10 0 15 10 15 30 0 17 3 30 8 30
15 0 53 -32 60 -50 6 -14 9 -15 19 -5 15 16 -7 49 -46 70 -25 12 -31 12 -50
-1z"/>
<path d="M4770 3023 c0 -40 11 -52 53 -57 l38 -5 -18 30 c-10 17 -30 37 -45
45 -27 14 -28 14 -28 -13z"/>
<path d="M4891 3003 c0 -4 4 -17 9 -28 8 -19 9 -19 9 2 1 12 -3 25 -9 28 -5 3
-10 3 -9 -2z"/>
<path d="M4767 2953 c-10 -10 -8 -53 2 -53 8 0 20 32 21 53 0 9 -14 9 -23 0z"/>
<path d="M2590 2902 c0 -6 -10 -13 -22 -17 -22 -7 -22 -7 -3 -12 11 -3 23 -10
27 -16 9 -14 51 -15 60 -2 7 9 10 0 7 -21 -1 -10 54 -44 73 -44 9 0 18 -4 20
-9 3 -10 21 -14 58 -12 19 1 21 4 11 10 -8 5 -20 7 -27 4 -24 -9 -108 49 -103
73 4 25 -4 34 -32 34 -17 0 -39 5 -50 10 -11 6 -19 7 -19 2z"/>
<path d="M3760 2869 c0 -5 5 -7 10 -4 6 3 10 8 10 11 0 2 -4 4 -10 4 -5 0 -10
-5 -10 -11z"/>
<path d="M3728 2860 c-24 -14 -41 -76 -34 -121 3 -21 17 -55 31 -75 l25 -37 0
30 c0 16 -7 38 -15 49 -19 25 -19 97 0 134 17 33 17 33 -7 20z"/>
<path d="M2608 2813 c7 -3 16 -2 19 1 4 3 -2 6 -13 5 -11 0 -14 -3 -6 -6z"/>
<path d="M2982 2756 c-1 -15 6 -39 15 -54 l17 -27 -25 21 c-21 19 -59 29 -59
15 0 -2 10 -16 23 -29 21 -24 8 -22 -23 3 -8 7 -31 16 -50 19 -33 6 -34 6 -16
-8 10 -9 23 -13 29 -9 6 4 7 1 2 -6 -4 -8 6 -27 28 -49 41 -43 79 -117 97
-187 16 -63 -2 -242 -28 -291 -6 -11 -18 -39 -27 -64 -9 -25 -33 -67 -52 -94
-20 -28 -33 -56 -30 -66 3 -12 0 -17 -8 -14 -7 3 -23 -10 -36 -28 -29 -43 -97
-105 -74 -68 3 6 -1 10 -11 10 -11 0 -15 6 -11 19 8 34 -19 31 -62 -5 -46 -40
-126 -59 -183 -44 -18 5 -44 7 -58 6 -14 -2 -33 -4 -42 -5 -21 -1 -16 -41 7
-53 39 -22 57 -106 31 -141 -13 -17 -10 -63 5 -72 4 -3 6 -12 2 -20 -7 -20 6
-19 28 1 22 20 35 13 42 -26 5 -22 12 -30 29 -31 48 -4 94 3 108 16 15 13 78
31 94 26 5 -1 12 2 15 8 4 6 20 7 44 2 21 -5 37 -5 37 0 0 5 7 5 18 0 50 -27
97 -33 113 -15 6 7 14 25 19 41 8 23 9 20 5 -17 l-5 -45 14 30 c8 17 15 23 16
15 1 -9 5 -6 11 8 5 13 13 20 19 17 6 -4 10 6 10 24 0 16 3 32 8 34 4 3 6 -23
5 -56 l-2 -62 14 45 c15 50 37 184 39 245 1 22 5 45 8 50 3 6 7 60 7 120 1 61
4 152 7 203 7 108 -4 229 -16 177 -4 -17 -12 -40 -18 -50 -9 -16 -10 5 -6 90
3 61 8 116 10 123 6 21 -24 130 -51 181 -13 25 -36 61 -52 80 l-28 33 -3 -26z
m32 -32 c3 -8 2 -12 -4 -9 -6 3 -10 10 -10 16 0 14 7 11 14 -7z m36 -604 c0
-5 -7 -10 -15 -10 -8 0 -15 5 -15 10 0 6 7 10 15 10 8 0 15 -4 15 -10z m-78
-112 c-9 -38 -33 -68 -53 -68 -11 0 -19 4 -19 9 0 5 7 8 16 7 10 0 25 15 36
37 23 42 29 47 20 15z m-195 -470 c-3 -8 -6 -5 -6 6 -1 11 2 17 5 13 3 -3 4
-12 1 -19z"/>
<path d="M2434 2744 c-18 -14 -18 -14 6 -3 31 14 36 19 24 19 -6 0 -19 -7 -30
-16z"/>
<path d="M2217 2683 c-89 -123 -140 -232 -163 -351 -15 -79 -17 -113 -4 -72 6
19 8 12 9 -30 0 -39 -2 -51 -9 -40 -9 14 -8 -8 5 -72 2 -10 0 -18 -5 -18 -12
0 -32 -124 -35 -220 -2 -47 -1 -80 2 -73 2 7 10 10 17 7 9 -3 10 -19 5 -57 -4
-29 -11 -77 -15 -107 -4 -30 -11 -61 -17 -67 -6 -9 -6 -13 2 -13 7 0 11 -22
11 -60 0 -55 10 -75 25 -50 3 6 1 10 -4 10 -6 0 -11 5 -11 11 0 5 6 7 13 3 8
-5 8 -2 -2 9 -12 15 -11 17 3 17 9 0 16 5 16 10 0 6 -7 10 -15 10 -8 0 -15 5
-15 10 0 6 7 10 15 10 8 0 15 9 15 20 0 11 -7 20 -15 20 -18 0 -22 75 -5 85 7
4 9 -9 5 -37 -4 -29 -3 -37 3 -23 10 21 27 132 23 152 -1 6 3 14 8 17 9 6 13
-26 26 -189 8 -99 22 -132 57 -137 27 -4 28 -4 21 36 -3 23 -12 45 -19 49 -8
4 -14 20 -14 35 0 15 -9 54 -19 87 -21 70 -36 162 -20 130 8 -17 9 -16 5 8 -5
37 8 23 24 -25 6 -21 16 -41 22 -45 8 -4 9 0 4 13 -14 35 -28 128 -24 155 3
16 1 26 -2 24 -4 -3 -10 25 -13 61 -4 36 -13 80 -22 96 -17 36 -20 50 -4 28 8
-11 9 -7 5 20 -9 62 11 2 35 -104 15 -66 25 -93 30 -80 3 10 2 28 -3 38 -10
18 -4 138 9 181 5 17 4 18 -10 6 -10 -7 -27 -11 -40 -7 -60 15 -63 148 -6 250
8 14 8 21 -1 26 -7 4 -9 13 -6 19 12 18 44 12 51 -9 3 -11 11 -20 16 -20 6 0
7 5 4 10 -3 6 3 24 15 40 12 17 18 30 14 30 -4 0 7 14 24 30 31 29 31 30 8 30
-12 0 -31 -9 -40 -19 -10 -11 -24 -17 -32 -14 -10 4 -4 17 24 52 56 69 69 90
33 54 -18 -18 -34 -33 -37 -33 -5 0 30 67 52 98 9 12 14 22 11 22 -3 0 -21
-21 -40 -47z m-127 -652 c0 -32 -6 -24 -14 19 -4 25 -3 31 4 20 5 -8 10 -26
10 -39z"/>
<path d="M2313 2661 c-23 -16 -44 -27 -47 -25 -3 2 -4 1 -1 -3 3 -3 -5 -17
-17 -30 -17 -19 -18 -23 -6 -23 26 0 48 11 48 24 0 6 9 17 20 24 12 7 18 17
15 22 -3 6 0 10 8 10 8 0 20 7 27 15 19 23 -1 17 -47 -14z"/>
<path d="M2543 2537 c2 -14 24 -25 50 -26 26 -1 12 15 -23 27 -22 8 -29 8 -27
-1z"/>
<path d="M2411 2453 l-23 -5 22 -15 c19 -13 24 -13 31 -2 7 11 9 11 9 -2 0
-20 24 -31 47 -22 12 5 14 3 9 -8 -4 -8 0 -5 9 6 16 20 16 20 35 -2 22 -28 34
-30 21 -4 -22 41 -99 67 -160 54z"/>
<path d="M2824 2411 c8 -13 83 -24 97 -15 9 5 7 10 -7 15 -27 11 -96 11 -90 0z"/>
<path d="M2940 2387 c0 -4 9 -16 20 -27 11 -11 20 -16 20 -12 0 5 -9 17 -20
27 -11 10 -20 15 -20 12z"/>
<path d="M1529 2376 c-3 -3 -77 -8 -165 -11 -90 -2 -187 -10 -224 -19 -36 -8
-117 -27 -180 -41 -240 -53 -450 -114 -521 -151 -30 -15 -32 -18 -14 -24 72
-26 94 -33 123 -40 47 -12 60 -26 67 -73 11 -76 24 -97 57 -97 33 0 215 36
368 74 l95 23 31 -24 32 -24 34 19 c42 24 67 30 191 47 57 8 250 8 287 0 14
-2 56 -11 94 -19 38 -8 73 -13 78 -10 4 3 8 0 8 -6 0 -22 19 1 25 30 4 16 11
32 16 35 5 4 6 -3 0 -17 -4 -13 -11 -36 -15 -52 -6 -25 -5 -28 8 -17 12 10 15
9 18 -6 4 -16 13 8 34 92 4 17 3 18 -6 5 -13 -17 -13 -17 14 80 8 30 13 56 11
58 -2 2 -7 -7 -11 -22 -3 -14 -10 -26 -15 -26 -11 0 -12 13 -1 25 10 11 64
157 60 160 -21 15 -486 45 -499 31z m422 -257 c-5 -13 -10 -19 -10 -12 -1 15
10 45 15 40 3 -2 0 -15 -5 -28z"/>
<path d="M2140 2349 c0 -5 5 -7 10 -4 6 3 10 8 10 11 0 2 -4 4 -10 4 -5 0 -10
-5 -10 -11z"/>
<path d="M2735 2350 c-3 -5 -2 -10 4 -10 5 0 13 5 16 10 3 6 2 10 -4 10 -5 0
-13 -4 -16 -10z"/>
<path d="M2913 2329 c10 -32 -7 -40 -47 -24 -21 9 -40 14 -43 11 -3 -2 -16 -1
-29 4 -27 10 -57 3 -48 -11 3 -6 15 -7 26 -3 12 3 18 2 15 -3 -7 -11 59 -37
73 -28 5 3 10 2 10 -4 0 -5 -8 -14 -17 -20 -14 -8 -11 -10 20 -16 20 -4 44 -5
52 -1 19 7 19 54 -1 86 -8 14 -13 18 -11 9z"/>
<path d="M2560 2220 c0 -5 9 -10 19 -10 11 0 23 5 26 10 4 6 -5 10 -19 10 -14
0 -26 -4 -26 -10z"/>
<path d="M2665 2218 c-21 -11 -45 -37 -45 -49 0 -4 16 -17 36 -30 32 -19 37
-20 51 -6 12 12 13 23 7 53 -10 42 -20 48 -49 32z"/>
<path d="M2032 2130 c0 -14 2 -19 5 -12 2 6 2 18 0 25 -3 6 -5 1 -5 -13z"/>
<path d="M5030 2128 c-25 -5 -50 -15 -56 -21 -10 -10 -53 -121 -109 -279 -16
-47 -17 -48 -87 -69 -39 -11 -83 -29 -97 -40 -14 -10 -43 -25 -64 -34 l-38
-15 6 27 c4 16 14 45 22 66 15 35 15 38 -4 60 -43 47 -71 125 -47 134 7 3 14
12 14 20 0 7 11 25 25 38 18 19 20 25 8 25 -40 0 -429 -83 -441 -94 -10 -10
-10 -41 -1 -155 10 -129 9 -144 -6 -161 -9 -10 -66 -35 -126 -56 -112 -38
-135 -52 -58 -35 75 17 955 181 1064 198 l50 8 3 198 c1 108 -1 197 -5 196 -5
-1 -28 -6 -53 -11z"/>
<path d="M2433 2103 c-18 -2 -33 -9 -33 -14 0 -13 58 -47 95 -55 16 -3 39 -11
50 -17 11 -6 22 -11 25 -12 3 0 16 -8 28 -17 22 -15 22 -17 5 -21 -10 -3 -35
-4 -55 -3 -21 2 -38 1 -38 -1 0 -2 25 -16 55 -29 53 -24 57 -25 80 -10 14 9
25 20 25 25 0 5 11 12 25 15 35 9 31 28 -17 78 -39 39 -50 44 -116 56 -40 6
-78 11 -85 10 -6 0 -27 -3 -44 -5z m147 -39 c43 -22 74 -50 63 -57 -16 -10
-193 61 -193 77 0 14 90 0 130 -20z"/>
<path d="M1395 1947 c-49 -6 -80 -16 -103 -33 l-32 -25 5 -76 c3 -42 10 -80
16 -84 6 -4 9 -11 5 -17 -8 -14 4 -43 15 -36 5 3 9 -2 9 -11 0 -9 -4 -14 -9
-10 -5 3 -2 -13 7 -36 9 -23 22 -43 29 -46 7 -3 13 -15 14 -27 0 -11 3 -15 6
-8 2 6 13 12 23 12 10 0 21 6 24 13 5 9 7 9 12 0 13 -30 29 15 29 82 0 91 3
105 27 105 15 0 18 3 10 13 -17 20 8 83 39 101 15 9 42 16 61 16 43 0 89 -44
93 -90 1 -17 10 -37 21 -44 14 -11 18 -28 20 -85 1 -39 -3 -74 -7 -77 -5 -3
-9 -10 -9 -15 0 -6 5 -7 10 -4 6 3 10 1 10 -5 0 -7 -8 -9 -19 -5 -13 4 -23 0
-30 -12 -9 -15 -10 -16 -11 -2 0 24 -130 24 -130 0 -1 -15 -2 -15 -13 0 -7 9
-18 14 -26 11 -7 -2 -17 2 -22 9 -9 14 -12 -3 -12 -63 0 -17 -5 -28 -13 -28
-8 0 -14 -4 -14 -10 0 -5 7 -10 15 -10 16 0 21 -16 6 -22 -5 -1 7 -17 25 -35
27 -26 34 -29 35 -15 0 10 5 6 11 -10 8 -23 16 -28 44 -28 34 0 45 15 24 36
-7 7 -6 11 5 11 8 0 15 -7 16 -16 0 -12 3 -11 9 4 5 12 9 14 9 6 1 -11 5 -10
20 3 12 11 17 25 14 34 -5 11 -2 14 9 9 11 -4 18 1 21 15 3 11 10 17 16 14 6
-4 14 8 20 26 5 18 10 26 10 18 1 -19 30 20 34 47 1 10 6 24 10 31 5 7 3 12
-3 12 -7 0 -6 5 2 14 7 8 15 12 18 11 4 -2 11 5 18 16 7 10 9 19 4 19 -4 0 -8
9 -8 20 0 11 6 20 12 20 16 0 23 33 18 80 -3 24 -1 40 6 40 5 0 10 9 10 20 0
11 -5 20 -12 20 -9 0 -9 3 -1 11 13 13 -13 73 -28 64 -5 -4 -9 -2 -9 3 0 24
-278 37 -415 19z m-55 -21 c0 -3 -4 -8 -10 -11 -5 -3 -10 -1 -10 4 0 6 5 11
10 11 6 0 10 -2 10 -4z m490 -202 c0 -8 -5 -12 -10 -9 -6 4 -8 11 -5 16 9 14
15 11 15 -7z m-485 -44 c3 -6 -1 -7 -9 -4 -18 7 -21 14 -7 14 6 0 13 -4 16
-10z m455 -15 c0 -8 -4 -15 -10 -15 -5 0 -7 7 -4 15 4 8 8 15 10 15 2 0 4 -7
4 -15z m-380 -5 c0 -5 -2 -10 -4 -10 -3 0 -8 5 -11 10 -3 6 -1 10 4 10 6 0 11
-4 11 -10z m333 -50 c3 -11 1 -20 -4 -20 -5 0 -9 9 -9 20 0 11 2 20 4 20 2 0
6 -9 9 -20z m-418 0 c3 -5 1 -10 -4 -10 -6 0 -11 5 -11 10 0 6 2 10 4 10 3 0
8 -4 11 -10z m45 -10 c0 -5 -4 -10 -10 -10 -5 0 -10 5 -10 10 0 6 5 10 10 10
6 0 10 -4 10 -10z m371 -44 c5 3 9 0 9 -6 0 -15 -23 -7 -26 8 -1 7 0 8 3 2 2
-5 9 -8 14 -4z m-104 -22 c-3 -3 -12 -4 -19 -1 -8 3 -5 6 6 6 11 1 17 -2 13
-5z m-147 -44 c0 -11 -7 -20 -15 -20 -8 0 -15 9 -15 20 0 11 7 20 15 20 8 0
15 -9 15 -20z m70 10 c0 -5 -2 -10 -4 -10 -3 0 -8 5 -11 10 -3 6 -1 10 4 10 6
0 11 -4 11 -10z m37 -10 c1 -11 -2 -20 -5 -20 -4 0 -8 9 -9 20 -1 11 2 20 5
20 4 0 8 -9 9 -20z m33 0 c0 -11 -4 -20 -8 -20 -4 0 -8 9 -8 20 0 11 4 20 8
20 4 0 8 -9 8 -20z m80 0 c0 -11 -4 -20 -8 -20 -4 0 -8 9 -9 20 -1 11 2 20 8
20 5 0 9 -9 9 -20z m-180 -65 c-7 -8 -16 -15 -21 -15 -5 0 -1 8 9 18 20 22 31
19 12 -3z m104 9 c3 -8 2 -12 -4 -9 -6 3 -10 10 -10 16 0 14 7 11 14 -7z"/>
<path d="M2191 1918 c10 -35 16 -44 25 -35 10 10 -5 54 -20 60 -11 5 -13 0 -5
-25z"/>
<path d="M4590 1914 c0 -11 10 -29 22 -40 12 -10 18 -13 14 -6 -4 6 -14 24
-22 40 -12 23 -14 24 -14 6z"/>
<path d="M1558 1833 c-20 -5 -20 -5 -23 -48 -3 -30 -3 -30 41 -26 40 3 44 5
44 30 0 42 -19 56 -62 44z"/>
<path d="M2181 1785 c0 -11 4 -29 9 -40 l9 -20 0 20 c0 11 -4 29 -9 40 l-9 20
0 -20z"/>
<path d="M2001 1764 c0 -11 3 -14 6 -6 3 7 2 16 -1 19 -3 4 -6 -2 -5 -13z"/>
<path d="M2143 1720 c2 -8 10 -42 17 -75 7 -33 15 -67 18 -75 7 -20 12 -41 14
-61 2 -15 28 -46 28 -33 0 29 -54 226 -66 240 -11 13 -14 14 -11 4z"/>
<path d="M2206 1645 c3 -38 7 -72 10 -74 7 -8 2 94 -7 119 -5 16 -6 0 -3 -45z"/>
<path d="M1570 1658 l5 -43 3 39 c3 30 6 36 13 25 9 -12 10 -12 6 1 -2 8 -10
16 -18 18 -12 2 -14 -6 -9 -40z"/>
<path d="M1198 1599 c-1 -41 -2 -99 -1 -129 0 -30 -4 -58 -10 -61 -5 -4 -5
-14 2 -27 9 -18 7 -23 -22 -40 -27 -17 -48 -24 -112 -38 -5 -1 -48 -9 -95 -18
-90 -16 -306 -61 -580 -121 -90 -20 -175 -33 -187 -30 -44 11 -53 51 -46 191
l6 127 -68 -7 c-38 -4 -72 -9 -77 -12 -4 -3 -8 -216 -8 -475 0 -400 2 -469 14
-469 17 0 21 11 36 100 6 36 20 77 31 92 10 15 19 32 19 37 0 8 88 80 127 104
19 12 248 57 288 57 20 0 66 7 103 15 37 8 119 24 182 36 63 11 120 25 127 31
6 5 15 23 18 39 4 16 18 37 32 47 14 9 44 36 66 59 22 23 47 45 56 48 10 3 25
23 35 45 10 22 20 40 24 41 15 1 38 7 55 14 10 4 17 3 17 -4 0 -17 43 -12 68
8 12 11 22 30 22 43 0 13 5 29 12 36 9 9 9 12 0 12 -15 0 -16 37 -1 42 9 3 9
9 0 25 -6 12 -11 31 -11 43 0 12 -4 18 -10 15 -5 -3 -10 1 -10 10 0 9 -4 13
-10 10 -5 -3 -10 2 -10 12 0 10 -9 24 -21 31 -13 9 -18 19 -14 32 4 12 -1 26
-14 39 -11 11 -16 21 -11 23 5 2 2 12 -6 22 -13 18 -14 13 -16 -55z m27 1 c3
-5 1 -10 -4 -10 -6 0 -11 5 -11 10 0 6 2 10 4 10 3 0 8 -4 11 -10z m83 -305
c-3 -3 -9 2 -12 12 -6 14 -5 15 5 6 7 -7 10 -15 7 -18z"/>
<path d="M1890 1580 c0 -5 5 -10 10 -10 6 0 10 5 10 10 0 6 -4 10 -10 10 -5 0
-10 -4 -10 -10z"/>
<path d="M1870 1549 c0 -6 -12 -21 -27 -34 -16 -13 -22 -25 -15 -25 6 0 12 5
12 10 0 6 8 10 18 10 14 0 15 -2 2 -10 -13 -9 -13 -11 0 -21 12 -8 10 -9 -7
-4 -26 7 -68 -28 -57 -48 4 -7 4 -9 -1 -5 -13 12 -40 -24 -37 -51 2 -21 1 -23
-8 -11 -9 13 -12 13 -24 -3 -8 -10 -18 -17 -23 -15 -4 2 -12 -7 -18 -20 -5
-12 -14 -21 -20 -19 -17 6 -33 -18 -30 -44 1 -13 0 -16 -2 -6 -2 9 -9 17 -14
17 -5 0 -9 -8 -9 -17 0 -11 -3 -14 -8 -7 -4 6 -16 10 -26 8 -11 -1 -33 4 -49
12 -23 12 -32 13 -41 3 -8 -9 -8 -10 2 -5 7 4 12 1 12 -8 0 -10 -6 -13 -16 -9
-9 3 -14 13 -11 24 4 15 0 19 -21 19 -17 0 -22 3 -15 8 9 6 7 11 -6 19 -16 10
-18 9 -14 -8 4 -13 0 -19 -10 -19 -18 0 -42 -71 -34 -101 3 -11 1 -19 -4 -19
-5 0 -6 -15 -4 -32 4 -24 3 -28 -3 -13 -8 17 -10 16 -17 -10 -5 -17 -9 -33 -9
-37 -1 -4 -7 -13 -13 -19 -7 -7 -13 -30 -13 -52 0 -51 29 -177 41 -177 15 0
69 92 62 104 -11 18 -10 46 1 46 7 0 7 3 1 8 -15 11 -17 33 -3 31 26 -3 39 1
33 11 -3 5 -2 10 4 10 5 0 12 -8 14 -17 3 -10 5 0 5 22 0 22 -2 32 -5 23 -5
-20 -19 -23 -29 -7 -3 6 0 15 7 20 8 5 10 9 4 9 -5 0 -2 5 8 11 21 12 47 -4
47 -28 0 -8 4 -11 10 -8 6 3 7 -1 4 -9 -3 -9 -1 -16 5 -16 6 0 10 -6 9 -12 -2
-7 3 -12 10 -10 7 1 12 -3 11 -10 -1 -7 7 -34 19 -61 17 -38 19 -53 11 -75
-12 -31 -57 -82 -73 -82 -6 0 -16 -10 -21 -22 -7 -15 -27 -28 -60 -39 -43 -13
-50 -19 -53 -45 -3 -28 -3 -28 12 -9 14 19 15 16 14 -35 -1 -30 2 -64 5 -76
11 -32 -26 -64 -73 -64 -45 0 -61 15 -25 24 34 9 32 38 -7 87 -31 38 -60 50
-74 28 -3 -6 -19 -9 -35 -5 -38 7 -37 -6 5 -41 19 -15 44 -40 56 -56 l22 -27
-26 10 c-15 5 -40 17 -57 26 -17 8 -32 14 -34 12 -1 -2 -5 -128 -9 -280 l-7
-278 320 0 c310 0 321 1 331 20 6 11 37 46 69 77 32 32 68 78 79 103 20 41 21
46 6 57 -10 7 -21 10 -25 7 -17 -10 -9 12 16 46 27 36 30 45 16 35 -6 -3 10
43 35 102 62 149 67 158 84 158 17 0 21 52 7 72 -5 7 -6 39 -2 70 5 32 9 73
10 91 1 18 7 38 14 45 9 9 10 3 6 -23 -5 -32 -5 -33 5 -10 6 14 9 33 6 42 -2
10 0 16 4 13 5 -3 11 1 14 7 3 7 4 -8 1 -34 -5 -67 8 -60 27 15 14 54 15 70 3
125 -7 35 -20 71 -29 81 -8 9 -27 54 -42 100 -16 46 -34 85 -41 88 -19 7 -25
-1 -17 -21 5 -14 9 -15 15 -4 6 9 9 6 9 -10 0 -15 -4 -21 -11 -16 -7 4 -10 1
-7 -7 3 -8 11 -13 17 -11 7 1 10 -2 7 -7 -4 -5 -2 -12 4 -16 5 -3 10 -11 10
-17 0 -5 -9 0 -20 13 -24 30 -24 22 -1 -69 l18 -73 -21 3 c-14 2 -22 11 -24
28 -2 20 -1 22 7 10 9 -13 11 -13 11 3 0 9 -4 17 -10 17 -5 0 -8 12 -7 28 2
15 0 38 -4 52 -7 24 -7 24 -8 3 -1 -18 -7 -23 -29 -23 -27 0 -29 3 -29 43 0
23 -4 56 -7 72 -4 17 -9 50 -12 75 -3 25 -9 47 -13 50 -4 3 -7 16 -7 30 -1 70
-4 82 -24 87 -18 5 -19 7 -5 17 14 10 14 12 -4 13 -12 1 -21 -3 -21 -8z m31
-122 c-10 -9 -11 -8 -5 6 3 10 9 15 12 12 3 -3 0 -11 -7 -18z m26 -69 c-3 -7
-5 -2 -5 12 0 14 2 19 5 13 2 -7 2 -19 0 -25z m-210 -34 c-3 -3 -12 -4 -19 -1
-8 3 -5 6 6 6 11 1 17 -2 13 -5z m-257 -75 c0 -20 -15 -26 -25 -9 -9 15 3 43
15 35 5 -3 10 -15 10 -26z m-40 11 c0 -5 -6 -10 -12 -10 -9 0 -8 -4 2 -10 13
-8 12 -10 -2 -10 -18 0 -24 20 -11 33 10 10 23 8 23 -3z m317 -12 c-3 -8 -6
-5 -6 6 -1 11 2 17 5 13 3 -3 4 -12 1 -19z m93 2 c0 -5 -2 -10 -4 -10 -3 0 -8
5 -11 10 -3 6 -1 10 4 10 6 0 11 -4 11 -10z m-410 -62 c0 -26 -9 -19 -15 11
-2 12 0 19 6 16 5 -4 9 -16 9 -27z m357 0 c-3 -8 -6 -5 -6 6 -1 11 2 17 5 13
3 -3 4 -12 1 -19z m-324 -3 c-3 -9 -8 -14 -10 -11 -3 3 -2 9 2 15 9 16 15 13
8 -4z m227 5 c0 -5 -2 -10 -4 -10 -3 0 -8 5 -11 10 -3 6 -1 10 4 10 6 0 11 -4
11 -10z m261 -3 c-1 -12 -15 -9 -19 4 -3 6 1 10 8 8 6 -3 11 -8 11 -12z m-481
-52 c0 -16 -6 -25 -15 -25 -9 0 -15 9 -15 25 0 16 6 25 15 25 9 0 15 -9 15
-25z m551 -3 c-6 -2 -9 -8 -5 -13 7 -12 -3 -11 -27 2 -11 5 -17 15 -13 21 4 7
9 6 14 -2 6 -9 11 -8 21 3 9 10 15 11 18 4 2 -6 -1 -13 -8 -15z m82 8 c3 -11
2 -22 -3 -25 -4 -3 -10 6 -12 20 -6 30 7 34 15 5z m-596 -12 c-3 -8 -6 -5 -6
6 -1 11 2 17 5 13 3 -3 4 -12 1 -19z m446 7 c-3 -9 -8 -14 -10 -11 -3 3 -2 9
2 15 9 16 15 13 8 -4z m193 -60 c-3 -18 -19 -22 -24 -6 -2 6 1 11 8 11 6 0 8
5 4 12 -4 6 -3 8 4 5 5 -4 9 -14 8 -22z m-716 5 c0 -5 -5 -10 -11 -10 -5 0 -7
5 -4 10 3 6 8 10 11 10 2 0 4 -4 4 -10z m658 -110 c-2 -17 -5 -15 -14 15 -10
32 -10 35 3 22 8 -8 13 -24 11 -37z m62 25 c0 -14 -2 -25 -4 -25 -2 0 -6 11
-8 25 -3 14 -1 25 3 25 5 0 9 -11 9 -25z m-50 -79 c0 -3 -4 -8 -10 -11 -5 -3
-10 -1 -10 4 0 6 5 11 10 11 6 0 10 -2 10 -4z"/>
<path d="M1441 1134 c0 -11 3 -14 6 -6 3 7 2 16 -1 19 -3 4 -6 -2 -5 -13z"/>
<path d="M3826 1531 c-8 -12 0 -45 12 -49 7 -2 12 1 12 6 0 6 3 17 6 25 5 15
-22 32 -30 18z"/>
<path d="M1993 1490 c0 -25 2 -35 4 -22 2 12 2 32 0 45 -2 12 -4 2 -4 -23z"/>
<path d="M3042 1510 c0 -14 2 -19 5 -12 2 6 2 18 0 25 -3 6 -5 1 -5 -13z"/>
<path d="M3699 1499 c-10 -6 -5 -11 15 -19 20 -7 32 -8 40 0 5 5 18 10 28 10
10 0 18 3 18 8 0 10 -85 11 -101 1z"/>
<path d="M3450 1453 c-14 -2 -35 -9 -48 -15 -22 -12 -23 -16 -17 -84 9 -87 2
-114 -29 -114 -13 0 -43 -13 -67 -30 -50 -33 -71 -36 -112 -15 -31 16 -99 37
-132 40 -30 3 -53 -12 -79 -53 -41 -65 -42 -80 -6 -117 25 -26 43 -34 86 -40
53 -6 70 -24 42 -41 -7 -4 -8 -3 -4 5 10 16 -52 11 -66 -6 -6 -7 -14 -10 -19
-7 -5 3 -9 -5 -9 -18 0 -13 4 -18 8 -13 14 20 36 10 44 -20 16 -59 49 -257 45
-269 -2 -6 0 -42 5 -81 9 -76 2 -157 -12 -120 -6 16 -9 13 -19 -20 -7 -22 -14
-46 -17 -54 -3 -10 -8 -11 -18 -2 -11 9 -15 7 -19 -9 -3 -13 -13 -20 -29 -20
-13 0 -30 -6 -37 -13 -11 -10 -13 -6 -8 20 5 25 3 33 -12 38 -11 3 -23 5 -27
4 -22 -4 -34 2 -34 16 0 22 -18 18 -25 -5 -3 -11 -11 -20 -16 -20 -6 0 -7 9
-3 23 4 12 8 30 8 39 0 9 3 15 7 12 4 -2 9 35 12 84 6 119 5 162 -5 162 -13 0
-38 -64 -27 -68 5 -2 9 -17 9 -33 0 -18 -4 -28 -10 -24 -7 4 -9 -2 -5 -18 4
-14 2 -28 -4 -31 -7 -5 -11 15 -12 61 -1 37 -3 82 -4 98 -1 17 8 53 21 82 13
28 24 61 24 72 0 31 11 51 27 51 16 0 15 -28 -2 -100 -5 -21 -3 -21 9 5 8 17
17 46 20 65 5 29 13 39 41 52 34 15 44 12 27 -7 -5 -6 -5 -26 -1 -45 l6 -35 3
35 c8 96 9 92 -17 85 -32 -8 -66 3 -59 20 3 8 -8 18 -27 26 -18 8 -48 27 -67
45 -33 29 -38 31 -103 26 -48 -3 -70 -9 -74 -19 -6 -15 19 -66 44 -91 31 -32
10 -72 -38 -72 -21 0 -23 -6 -20 -66 2 -37 -2 -45 -35 -73 -33 -27 -36 -31
-17 -31 49 0 51 -4 52 -133 1 -67 4 -147 7 -178 6 -54 6 -55 -31 -85 -20 -16
-41 -37 -46 -47 -10 -17 -8 -17 25 -3 l36 15 -15 -30 c-13 -25 -47 -49 -146
-105 -31 -18 -30 -20 6 -16 20 2 38 8 41 13 8 14 34 11 51 -6 10 -11 26 -14
49 -11 30 5 34 3 40 -21 7 -28 -1 -38 -71 -90 l-30 -22 393 -1 c347 0 392 2
392 15 0 40 -32 290 -40 310 -5 13 -6 63 -3 112 3 55 1 103 -6 128 -11 38 -25
270 -26 435 l0 74 32 9 c25 8 38 5 66 -12 59 -36 130 -22 198 37 l43 38 -12
72 c-7 39 -12 101 -12 137 0 100 -10 111 -90 98z m-633 -593 c-6 -16 -13 -27
-15 -25 -7 7 8 55 17 55 5 0 4 -13 -2 -30z"/>
<path d="M1991 1414 c0 -11 3 -14 6 -6 3 7 2 16 -1 19 -3 4 -6 -2 -5 -13z"/>
<path d="M2053 1353 c-7 -2 -13 -9 -13 -14 0 -6 3 -8 8 -6 15 9 47 -11 53 -34
7 -23 7 -23 8 4 1 28 14 36 27 16 4 -8 9 -7 15 2 6 10 9 11 9 2 0 -7 9 -13 20
-13 11 0 20 7 20 15 0 25 17 17 30 -15 7 -17 10 -48 7 -70 -3 -25 -1 -39 5
-37 13 2 30 -57 25 -87 -2 -14 -6 -7 -13 23 -5 25 -16 47 -24 49 -8 3 -12 2
-9 -2 4 -4 -4 -18 -17 -31 -23 -23 -24 -30 -19 -102 3 -43 10 -105 15 -138 6
-33 10 -100 10 -150 0 -105 7 -138 26 -131 9 4 14 -2 14 -17 0 -18 2 -19 10
-7 6 8 8 40 4 70 -4 40 -3 51 5 40 6 -8 11 -43 11 -77 0 -63 12 -83 25 -41 4
11 6 71 4 132 -4 153 -1 189 12 180 7 -4 9 0 5 12 -6 21 -26 144 -26 159 1 6
7 -1 15 -15 14 -25 15 -24 9 12 -3 21 -16 64 -30 97 -13 34 -24 73 -24 88 0
47 -11 71 -33 78 -41 12 -142 13 -156 1 -11 -8 -13 -8 -7 2 7 12 0 14 -21 5z
m244 -245 c-3 -8 -6 -5 -6 6 -1 11 2 17 5 13 3 -3 4 -12 1 -19z"/>
<path d="M1985 1340 c4 -6 11 -8 16 -5 14 9 11 15 -7 15 -8 0 -12 -5 -9 -10z"/>
<path d="M1392 1320 c0 -14 2 -19 5 -12 2 6 2 18 0 25 -3 6 -5 1 -5 -13z"/>
<path d="M2284 1314 c3 -9 6 -21 6 -27 0 -7 5 -4 11 6 11 18 5 37 -13 37 -5 0
-7 -7 -4 -16z"/>
<path d="M2320 1317 c0 -9 11 -12 35 -9 33 4 35 2 35 -25 0 -26 5 -30 47 -41
37 -10 48 -10 55 0 16 25 3 39 -57 64 -66 26 -115 31 -115 11z"/>
<path d="M1990 1308 c-1 -2 -2 -29 -5 -61 -3 -58 -3 -59 17 -41 11 10 16 20
11 21 -5 2 -7 18 -5 37 2 18 -1 37 -7 40 -6 4 -11 6 -11 4z"/>
<path d="M2345 1010 c3 -5 8 -10 11 -10 2 0 4 5 4 10 0 6 -5 10 -11 10 -5 0
-7 -4 -4 -10z"/>
<path d="M2183 875 c0 -27 2 -38 4 -22 2 15 2 37 0 50 -2 12 -4 0 -4 -28z"/>
<path d="M2903 794 c-27 -59 -28 -77 -8 -94 13 -11 15 -8 15 14 0 15 5 36 11
47 5 11 9 34 7 51 -3 32 -3 31 -25 -18z"/>
<path d="M2951 794 c0 -11 3 -14 6 -6 3 7 2 16 -1 19 -3 4 -6 -2 -5 -13z"/>
<path d="M2861 674 c0 -11 3 -14 6 -6 3 7 2 16 -1 19 -3 4 -6 -2 -5 -13z"/>
<path d="M2873 595 c0 -22 2 -30 4 -17 2 12 2 30 0 40 -3 9 -5 -1 -4 -23z"/>
<path d="M3026 455 c-3 -9 -6 -22 -5 -28 0 -7 5 -1 10 12 5 13 8 26 5 28 -2 2
-6 -3 -10 -12z"/>
<path d="M4405 389 c-38 -9 -121 -17 -175 -19 -20 0 -29 -9 -42 -43 -31 -74
-26 -82 37 -57 11 4 43 14 70 23 46 14 63 18 132 32 24 4 64 24 50 25 -4 0 -3
9 3 20 6 12 7 20 1 20 -5 0 -15 2 -23 4 -7 2 -31 0 -53 -5z"/>
<path d="M2 208 c1 -133 1 -133 9 -48 10 124 10 180 -1 180 -6 0 -9 -50 -8
-132z"/>
<path d="M2050 10 c-23 -7 -23 -8 -3 -9 12 -1 25 4 28 9 3 6 5 10 3 9 -2 -1
-14 -5 -28 -9z"/>
</g>
</svg>
